<?xml version="1.0" standalone="no"?>
<!DOCTYPE svg PUBLIC "-//W3C//DTD SVG 1.1//EN" "http://www.w3.org/Graphics/SVG/1.1/DTD/svg11.dtd" >
<svg xmlns="http://www.w3.org/2000/svg" xmlns:xlink="http://www.w3.org/1999/xlink" version="1.1" viewBox="-10 0 271 256">
   <path fill="currentColor"
d="M71 69q0 -1 2 0q1 7 10 6v1q4 0 4 3t-3 4q-4 1 -5 12q5 -1 18 -6q3 -1 4 -4q0 -2 2 -2q4 2 11 3q2 2 2 3q-1 3 -2 3q-9 5 -19 28q-2 2 2 2q7 -2 13 -2q2 0 2 1v2q0 4 -2 8q-2 2 -4 7q-3 12 -6 18l10 8q9 6 21 15q23 18 47 25h9q3 1 15 1q25 -1 48 8q1 0 0 1q-1 0 -3 1
q-10 -1 -20 -1t-25 1q-11 0 -25 -7q-29 -11 -49 -27q-22 -15 -29 -21q-13 26 -31 41q-3 2 0 -1q14 -16 26 -42q-11 -8 -33 0q-14 45 -26 75q-2 2 -1 -1q7 -29 22 -71q11 -37 17 -72q1 -6 -1 -10h-1q-4 -2 0 -10zM97 94q-15 6 -19 5q-1 1 -1 3q-10 31 -15 53q7 -1 12 -5t22 4
q3 -11 6 -25q2 -7 -12 1q-4 3 -5 1q-2 1 -1 -5q-1 -3 3 -4q2 1 13 -25q1 -3 0 -3q0 -1 -3 0zM117 163h3q6 -1 12 -4q14 -5 18 -6q0 -4 -1 -13v-18q-11 4 -25 5q-3 0 0 -2q6 -1 18 -6q4 -2 7 -4q1 -10 0 -19q-1 -3 1 -2q6 4 6 17q11 -5 25 -5q5 0 5 3t-3 2q-15 0 -27 7
q-3 20 -2 34q5 -1 18 -3q8 -2 13 -3q2 -3 5 -3q12 0 17 3q2 1 2 2q0 4 -4 2h-9q-4 0 -13 1q-28 4 -52 13q-7 3 -14 1q-4 -1 0 -2zM167 28q1 -2 5 -1q7 3 14 3q4 0 5 3t-3 3q-2 1 -4 1q-11 3 -23 4q-17 4 -44 10q-6 2 -2 -1h1h-2q-7 2 -18 4q-17 4 -34 7q-15 5 -21 0
q-1 0 1 -1q72 -13 114 -24q9 -2 11 -8zM163 65q9 -1 21 0q2 0 2 1v2q-1 3 -3 3h-2q-11 1 -23 8q-8 4 -24 10q-6 2 -8 3q-3 0 0 -2q23 -11 35 -21q-1 -3 2 -4zM99 10q15 3 30 14q1 1 0 3q0 3 -3 3q-5 2 -21 -1q-2 0 -3 -1q0 -1 2 -3q4 -4 -7 -13q-2 -2 2 -2z" />
</svg>
