<?xml version="1.0" standalone="no"?>
<!DOCTYPE svg PUBLIC "-//W3C//DTD SVG 1.1//EN" "http://www.w3.org/Graphics/SVG/1.1/DTD/svg11.dtd" >
<svg xmlns="http://www.w3.org/2000/svg" xmlns:xlink="http://www.w3.org/1999/xlink" version="1.1" viewBox="-10 0 266 256">
   <path fill="currentColor"
d="M182 37q8 0 26 29q2 7 -4 8q-5 0 -7 6q-9 29 -25 39q-13 8 -26 -5q-4 3 -5 3t2 -4q1 -1 1 -2q-1 0 -4 1q-24 9 -32 6q-4 -1 1 -2q5 0 10 -2q-5 -7 -12 -12v-1q-4 -1 -2 -5q0 -1 2 -4t3 -5q-2 -5 -6 -19q-2 -11 -3 -16q0 -4 2 -1q5 13 10 32q2 21 16 29q7 -2 11 -5v-11
q1 -10 1 -15q-4 2 -15 1q-3 0 0 -1l15 -5q0 -21 -3 -30q-10 4 -15 3t0 -2q37 -13 59 -10zM141 45q3 5 6 8q2 3 1 6q-2 4 -1 14l12 -6q2 -4 12 -1q2 1 1 2q0 2 -2 2q-9 2 -23 9q-1 5 -2 14v13q3 0 8 -4l2 -2q4 -4 21 -2q1 1 1 3q0 1 -2 1q-15 2 -26 10q13 11 25 -1
q12 -11 20 -52q-1 -15 -14 -19q-11 -3 -39 5zM69 32q-1 -3 2 -1q7 8 5 12q-7 15 -11 32q-4 26 -5 63q-1 38 2 49v2q2 4 2 8q2 3 6 8q7 9 10 13q1 1 -1 3q-2 1 -2 0q-12 -16 -24 -22q-6 -8 6 -11q-5 -50 2 -117q-5 8 -12 20q-11 19 -20 34q-5 7 -2 -1q7 -15 21 -42
q9 -18 13 -25q7 -15 8 -25zM197 162q-3 -2 -3 -3q0 -2 3 0q10 6 25 19q2 2 4 3q2 5 8 4q3 3 1 6q-6 1 -14 5q-3 1 -5 1q-29 9 -63 -1q-31 -11 -44 -38q-5 -7 2 -1q38 50 101 36q6 -1 3 -9t-18 -22zM198 121q23 4 33 13q3 7 -1 7q-7 2 -10 -4q-6 -8 -22 -14q-6 -2 0 -2z
M92 158q1 -4 2 1q-5 18 2 23q1 5 -2 7q-3 3 -5 2q-1 0 -1 -4q-3 -15 4 -29zM140 131q0 -5 2 0q2 7 9 5q2 0 4 4q1 0 2 1q2 5 0 6q-6 2 -9 -1q-7 -6 -8 -15z" />
</svg>
